<?xml version="1.0" standalone="no"?> <!DOCTYPE svg PUBLIC "-//W3C//DTD SVG 1.0//EN" "http://www.w3.org/TR/2001/REC-SVG-20010904/DTD/svg10.dtd" > <svg xmlns="http://www.w3.org/2000/svg" width="100%" height="100%">
<defs >
<font horiz-adv-x="573" ><font-face
    font-family=""
    units-per-em="1000"
    panose-1="2 0 8 3 6 0 0 2 0 4"
    ascent="985"
    descent="-342"
    alphabetic="0" />
<missing-glyph horiz-adv-x="602" d="M65 661H537V0H65V661ZM110 45H491V614H110V45ZM281 559Q353 559 388 529T423 454Q423 420 404 398T338 347Q291 318 281 305T271 272Q271 264 272 256T278 240Q251 232 236 245T221 287Q221 312 239 331T306 376Q356 404
369 418T383 447Q383 469 361 484T295 500Q259 500 238 493T207 479Q204 484 201 491T198 505Q198 533 224 546T281 559ZM264 181Q280 181 291 171T303 142Q303 120 292 108T261 96Q243 96 233 107T223 139Q223 158 234 169T264 181Z" />
<glyph unicode=" " glyph-name="space" horiz-adv-x="198" />
<glyph unicode="!" glyph-name="exclam" horiz-adv-x="349" d="M294 626Q294 589 284 550T260 469Q241 411 233 347T226 241Q174 222 144 241T110 310L71 702Q93 716 121 725T178 734Q231 734 262 708T294 626ZM258 72Q258 35 236 8T168 -20Q128 -20 107 2T86
62Q86 99 108 126T176 153Q214 153 236 129T258 72Z" />
<glyph unicode="&quot;" glyph-name="quotedbl" horiz-adv-x="447" d="M80 466Q65 516 53 579T40 679Q40 715 63 730T121 746Q155 746 178 731T202 679Q202 642 189 579T160 466Q145 470 120 470T80 466ZM407 679Q407 642 394 579T365 466Q350 470 325 470T285
466Q270 516 258 579T245 679Q245 715 268 730T326 746Q360 746 383 731T407 679Z" />
<glyph unicode="#" glyph-name="numbersign" horiz-adv-x="563" d="M313 246L333 387H244L224 246H313ZM379 73Q375 44 346 34T283 38L301 165H212L199 73Q195 44 166 34T103 38L121 165H53Q46 179 46 205T53 246H133L153 387H84Q77 401 77 427T84 468H165L180
572Q184 600 210 610T276 606L256 468H345L360 572Q364 600 390 610T456 606L436 468H508Q515 452 516 427T508 387H424L404 246H477Q484 230 485 205T477 165H392L379 73Z" />
<glyph unicode="$" glyph-name="dollar" horiz-adv-x="498" d="M297 -161Q284 -170 261 -170T222 -163V-28Q125 -24 80 6T35 90Q35 115 55 145T139 171Q143 121 172 89T251 56Q285 56 299 68T313 97Q313 113 300 130T226 176L152 210Q109 230 86 257T63 332Q63
388 99 436T222 500V637Q238 642 260 642T297 636V505Q334 504 370 497T438 474L427 385Q422 351 394 340T335 342V421Q320 426 303 429T268 433Q233 433 219 417T205 384Q205 366 214 353T254 328L320 303Q399 272 431 241T463 155Q463 85 419 36T297 -25V-161Z"
/>
<glyph unicode="%" glyph-name="percent" horiz-adv-x="797" d="M633 424L224 -6Q207 -25 197 -38T177 -68Q144 -68 128 -41T143 19L566 470Q582 487 592 500T613 529Q651 522 659 491T633 424ZM189 483Q244 483 288 453T333 353Q333 296 291 254T178 212Q121
212 78 241T35 340Q35 399 77 441T189 483ZM179 420Q152 420 141 401T129 352Q129 314 145 294T186 274Q214 274 225 292T237 342Q237 379 219 399T179 420ZM618 255Q673 255 717 225T762 125Q762 68 720 26T607 -16Q550 -16 507 13T464 112Q464 171 506 213T618
255ZM666 114Q666 151 648 171T608 192Q581 192 570 173T558 124Q558 86 574 66T615 46Q643 46 654 64T666 114Z" />
<glyph unicode="&amp;" glyph-name="ampersand" horiz-adv-x="762" d="M538 389L350 402Q363 429 370 461T377 523Q377 560 357 588T288 616Q254 616 239 597T224 551Q224 526 235 505T268 463L517 235Q529 267 535 310T538 389ZM756 472Q772 423 742 395T654
372Q647 320 631 281T577 183Q620 146 666 114T750 71Q742 32 705 4T618 -25Q582 -25 545 -8T461 56Q419 22 365 3T252 -16Q146 -16 84 25T22 151Q22 202 52 254T153 344Q116 378 99 416T82 495Q82 580 142 639T325 699Q407 699 454 665T502 577Q502 546 491 520T458
469Q496 469 547 469T645 470T723 471T756 472ZM401 115L204 293Q191 279 182 251T173 197Q173 143 207 113T299 83Q326 83 354 92T401 115Z" />
<glyph unicode="&apos;" glyph-name="quotesingle" horiz-adv-x="242" d="M80 466Q65 516 53 579T40 679Q40 715 63 730T121 746Q155 746 178 731T202 679Q202 642 189 579T160 466Q145 470 120 470T80 466Z" />
<glyph unicode="(" glyph-name="parenleft" horiz-adv-x="319" d="M149 -224Q100 -150 68 -28T35 242Q35 391 72 504T157 691Q189 739 217 761T264 784Q279 784 289 776T303 754Q240 688 207 554T173 253Q173 169 182 88T209 -64T250 -190T303 -279Q300 -293 288
-301T259 -310Q233 -310 207 -291T149 -224Z" />
<glyph unicode=")" glyph-name="parenright" horiz-adv-x="319" d="M170 699Q219 625 251 503T284 233Q284 84 247 -29T162 -216Q130 -264 102 -286T55 -309Q40 -309 30 -301T16 -279Q79 -213 112 -79T146 222Q146 306 137 387T110 539T69 665T16 754Q19 768 31
776T60 785Q86 785 112 766T170 699Z" />
<glyph unicode="*" glyph-name="asterisk" horiz-adv-x="464" d="M303 531L414 382Q406 366 388 356T349 344T308 347T278 371L214 477L110 339Q72 346 59 387T82 462L156 529L14 595Q13 636 53 662T136 655L189 612L192 783Q238 802 271 781T294 706L273 599L346
653Q383 681 418 654T443 588L303 531Z" />
<glyph unicode="+" glyph-name="plus" horiz-adv-x="464" d="M279 37Q262 29 232 29T184 37V202H40Q33 216 33 242T40 283H184V446Q201 454 231 454T279 446V283H423Q430 267 431 242T423 202H279V37Z" />
<glyph unicode="," glyph-name="comma" horiz-adv-x="294" d="M79 -143Q65 -143 54 -135T38 -110Q78 -97 102 -73T127 -18Q127 3 108 20T44 41Q40 80 63 114T139 149Q195 149 219 110T244 16Q244 -43 196 -93T79 -143Z" />
<glyph unicode="-" glyph-name="hyphen" horiz-adv-x="404" d="M343 283Q350 267 351 242T343 202H60Q53 216 53 242T60 283H343Z" />
<glyph unicode="." glyph-name="period" horiz-adv-x="272" d="M222 72Q222 35 200 8T132 -20Q92 -20 71 2T50 62Q50 99 72 126T140 153Q178 153 200 129T222 72Z" />
<glyph unicode="/" glyph-name="slash" horiz-adv-x="290" d="M271 644L155 -90Q152 -106 148 -131T140 -183T132 -233T126 -270Q121 -273 111 -275T88 -277Q45 -277 28 -255T18 -178L151 657Q155 685 159 712T165 759Q172 761 183 763T207 765Q250 765 265 738T271 644Z" />
<glyph unicode="0" glyph-name="zero" horiz-adv-x="598" d="M310 483Q361 483 409 470T493 429T551 355T573 247Q573 138 495 61T288 -16Q237 -16 189 -3T105 38T47 112T25 220Q25 329 103 406T310 483ZM288 384Q233 384 210 346T187 246Q187 168 223 126T310
83Q364 83 387 121T411 221Q411 299 375 341T288 384Z" />
<glyph unicode="1" glyph-name="one" horiz-adv-x="377" d="M110 88V362Q43 352 24 375T12 431Q34 435 70 442T143 458T216 476T274 491V82L372 62Q372 33 356 17T308 0Q283 0 240 1T168 2Q146 2 119 2T67 1T26 1T9 0Q7 6 6 12T5 23Q5 37 12 50T39 68L110 88Z" />
<glyph unicode="2" glyph-name="two" horiz-adv-x="445" d="M429 73Q429 28 393 9T305 -10Q280 -10 233 -8T139 -4T57 0T22 2L7 59Q77 111 120 148T186 212T217 260T225 302Q225 337 207 357T151 377Q130 377 111 366T76 334Q56 338 47 352T37 386Q37 422 83 452T214
483Q305 483 351 439T397 329Q397 269 348 217T171 106Q262 104 316 110T402 136Q415 123 422 106T429 73Z" />
<glyph unicode="3" glyph-name="three" horiz-adv-x="440" d="M389 329Q389 263 348 222T258 170Q333 163 378 120T423 14Q423 -76 350 -132T157 -189Q76 -189 26 -164T-25 -99Q-25 -74 -11 -56T24 -32Q37 -59 65 -82T140 -105Q186 -105 213 -80T241 -5Q241 54
199 77T97 108L81 179Q147 189 181 220T216 302Q216 336 196 356T139 377Q117 377 96 366T58 334Q38 338 29 352T19 386Q19 422 67 452T202 483Q294 483 341 439T389 329Z" />
<glyph unicode="4" glyph-name="four" horiz-adv-x="536" d="M272 341Q256 324 233 294T187 228T142 157T108 93H265L272 341ZM530 109Q540 94 540 74T529 35T493 4T432 -5L433 -61Q434 -138 404 -165T329 -192Q311 -192 294 -188T259 -174L261 0H44L5 74Q26 117
62 174T139 290T222 399T297 481L423 455L430 99Q452 99 481 101T530 109Z" />
<glyph unicode="5" glyph-name="five" horiz-adv-x="449" d="M113 -188Q43 -188 13 -167T-17 -122Q-17 -112 -14 -102T-7 -88Q17 -97 46 -102T101 -107Q168 -107 206 -77T244 9Q244 60 197 101T43 146L59 468H259Q299 468 335 471T409 483Q416 470 419 457T422
431Q422 390 391 359T297 327Q256 327 214 328T145 333L140 249Q291 248 353 191T416 48Q416 -57 330 -122T113 -188Z" />
<glyph unicode="6" glyph-name="six" horiz-adv-x="525" d="M25 242Q25 434 124 545T395 656Q458 656 484 634T510 589Q510 579 507 569T500 555Q476 564 447 569T392 574Q318 574 276 531T213 414Q222 416 238 418T273 421Q372 421 434 373T496 226Q496 113 428
49T251 -16Q137 -16 81 56T25 242ZM191 266Q191 171 218 125T282 78Q310 78 326 101T342 174Q342 255 304 299T197 349Q194 330 193 309T191 266Z" />
<glyph unicode="7" glyph-name="seven" horiz-adv-x="447" d="M455 465Q427 413 385 330T298 155T210 -28T137 -186Q60 -190 48 -138T76 -8Q111 58 165 141T285 323Q255 319 219 317T133 314Q61 314 31 358T28 477Q62 472 120 469T241 465T362 463T455 465Z" />
<glyph unicode="8" glyph-name="eight" horiz-adv-x="525" d="M499 179Q499 91 428 38T249 -16Q136 -16 78 32T19 147Q19 200 50 247T132 322Q86 363 71 398T55 477Q55 549 108 604T274 659Q370 659 419 615T469 508Q469 452 443 416T380 354Q452 305 475 265T499
179ZM354 484Q354 524 330 548T262 573Q225 573 211 556T197 517Q197 491 217 466T319 391Q338 414 346 436T354 484ZM337 130Q337 158 309 188T192 275Q169 250 161 225T153 171Q153 124 183 100T264 75Q298 75 317 89T337 130Z" />
<glyph unicode="9" glyph-name="nine" horiz-adv-x="530" d="M345 201Q345 296 318 342T254 389Q226 389 210 366T194 293Q194 212 232 168T339 118Q342 137 343 158T345 201ZM511 225Q511 33 412 -78T141 -189Q78 -189 52 -167T26 -122Q26 -112 29 -102T36 -88Q60
-97 89 -102T144 -107Q218 -107 260 -64T323 53Q314 51 297 49T261 46Q162 46 101 94T40 241Q40 354 108 418T285 483Q399 483 455 411T511 225Z" />
<glyph unicode=":" glyph-name="colon" horiz-adv-x="302" d="M147 287Q107 287 86 309T65 369Q65 406 87 433T155 460Q193 460 215 436T237 379Q237 342 215 315T147 287ZM155 178Q193 178 215 154T237 97Q237 60 215 33T147 5Q107 5 86 27T65 87Q65 124 87 151T155
178Z" />
<glyph unicode=";" glyph-name="semicolon" horiz-adv-x="302" d="M147 287Q107 287 86 309T65 369Q65 406 87 433T155 460Q193 460 215 436T237 379Q237 342 215 315T147 287ZM83 -143Q69 -143 58 -135T42 -110Q82 -97 106 -73T131 -18Q131 3 112 20T48 41Q44
80 67 114T143 149Q199 149 223 110T248 16Q248 -43 200 -93T83 -143Z" />
<glyph unicode="&lt;" glyph-name="less" horiz-adv-x="372" d="M253 34L29 242L259 464Q278 460 294 444T317 409L149 253L318 99Q313 81 293 60T253 34Z" />
<glyph unicode="=" glyph-name="equal" horiz-adv-x="449" d="M402 376Q409 360 410 335T402 295H46Q39 309 39 335T46 376H402ZM402 191Q409 175 410 150T402 110H46Q39 124 39 150T46 191H402Z" />
<glyph unicode="&gt;" glyph-name="greater" horiz-adv-x="372" d="M113 464L337 256L107 34Q88 38 72 54T49 89L217 245L48 399Q53 417 73 438T113 464Z" />
<glyph unicode="?" glyph-name="question" horiz-adv-x="428" d="M177 715Q300 715 362 666T424 545Q424 489 401 449T308 362Q263 331 239 294T224 207Q157 193 122 215T87 285Q87 327 113 356T214 421Q277 450 296 467T316 509Q316 529 293 547T219 565Q176
565 137 557T63 532Q50 546 44 564T37 601Q37 643 71 679T177 715ZM263 72Q263 35 241 8T173 -20Q133 -20 112 2T91 62Q91 99 113 126T181 153Q219 153 241 129T263 72Z" />
<glyph unicode="@" glyph-name="at" horiz-adv-x="974" d="M941 373Q941 292 916 221T849 98T753 15T642 -16Q579 -16 550 21T533 147Q523 119 508 90T474 38T429 -1T373 -16Q331 -16 298 32T264 173Q264 312 342 399T542 487Q582 487 622 477T688 453Q688 453
682 417T667 332T652 236T645 166Q645 117 654 103T683 89Q706 89 729 110T772 165T803 245T815 338Q815 459 737 524T526 590Q364 590 265 479T166 187Q166 23 250 -59T478 -141Q533 -141 580 -128T659 -92Q668 -97 672 -108T677 -128Q677 -146 660 -167T611 -206T534
-236T434 -248Q245 -248 139 -143T33 142Q33 271 72 375T180 552T341 664T541 704Q643 704 718 679T843 609T917 503T941 373ZM548 385Q539 392 528 396T507 400Q482 400 461 383T426 339T403 277T394 205Q394 154 406 134T434 114Q456 114 492 187T548 385Z" />
<glyph unicode="A" glyph-name="A" horiz-adv-x="703" d="M383 0Q381 5 380 11T379 22Q379 36 386 47T413 67L446 81L408 190H210L176 77L256 63Q260 36 245 18T197 0Q176 0 152 1T98 2Q54 2 31 1T8 0Q6 5 5 11T4 22Q4 36 11 48T38 67L73 81L266 650Q288 657 307
659T343 662Q383 662 411 641T457 573L636 81L698 63Q702 36 687 18T639 0Q618 0 580 1T511 2Q467 2 425 1T383 0ZM386 266L304 512L231 266H386Z" />
<glyph unicode="B" glyph-name="B" horiz-adv-x="639" d="M30 0Q28 5 27 11T26 22Q26 36 33 48T60 67L95 81V568L27 582Q21 602 28 617T63 642T147 658T291 663Q411 663 489 624T568 501Q568 446 535 407T442 356Q526 346 568 304T610 196Q610 97 539 48T346 -2Q332
-2 307 -2T254 0T202 1T161 2Q117 2 74 1T30 0ZM405 468Q405 522 364 551T268 581V367Q322 359 363 377T405 468ZM341 70Q386 70 413 96T440 169Q440 232 390 265T268 292V78Q268 78 293 74T341 70Z" />
<glyph unicode="C" glyph-name="C" horiz-adv-x="627" d="M472 73L519 187Q531 217 555 219T601 207L564 35Q527 10 479 -3T355 -16Q213 -16 123 61T33 295Q33 376 55 444T123 562T240 638T408 666Q451 666 499 656T581 631L556 487Q551 456 527 447T477 445L482
567Q465 574 440 579T389 585Q308 585 261 517T214 335Q214 207 283 140T472 73Z" />
<glyph unicode="D" glyph-name="D" horiz-adv-x="736" d="M95 81V565L27 579Q13 622 69 642T304 663Q497 663 600 582T703 336Q703 264 681 202T613 94T498 24T334 -2Q324 -2 301 -2T252 0T201 1T161 2Q101 2 66 1T30 0Q28 5 27 11T26 22Q26 36 33 48T60 67L95
81ZM334 75Q418 75 475 134T532 297Q532 437 458 502T268 574V79Q268 79 291 77T334 75Z" />
<glyph unicode="E" glyph-name="E" horiz-adv-x="571" d="M29 0Q27 5 26 11T25 22Q25 36 32 48T59 67L94 81V570L31 588Q27 616 42 634T90 652H496L504 544Q507 504 490 489T441 477L422 570L267 580V349H374Q373 389 394 406T450 416L443 259Q442 226 417 214T367
207L370 273H267V88L426 76L465 168Q479 198 502 201T547 189L504 0H29Z" />
<glyph unicode="F" glyph-name="F" horiz-adv-x="514" d="M486 652L494 544Q497 504 480 489T431 477L412 570L267 580V344H374Q373 384 394 401T450 411L443 254Q442 221 417 209T367 202L370 268H267V83L373 65Q377 37 362 19T314 0Q304 0 284 0T242 1T197 1T160
2Q116 2 73 1T29 0Q27 5 26 11T25 22Q25 36 32 48T59 67L94 81V570L31 588Q27 616 42 634T90 652H486Z" />
<glyph unicode="G" glyph-name="G" horiz-adv-x="671" d="M463 74V211L364 229Q360 257 375 275T423 294H652Q660 272 654 252T623 221L607 213V58Q562 26 504 5T355 -16Q213 -16 123 61T33 295Q33 376 55 444T123 562T240 638T408 666Q458 666 507 656T596 626L572
487Q567 456 542 445T491 444L496 560Q472 573 444 579T387 585Q306 585 260 517T214 335Q214 209 280 142T463 74Z" />
<glyph unicode="H" glyph-name="H" horiz-adv-x="789" d="M706 0Q685 0 644 1T572 2Q528 2 490 1T451 0Q449 5 448 11T447 22Q447 36 454 48T481 67L516 81V280H267V81L343 63Q347 36 332 18T284 0Q263 0 222 1T150 2Q106 2 68 1T29 0Q27 5 26 11T25 22Q25 36
32 48T59 67L94 81V571L25 589Q21 616 36 634T84 652H333Q341 631 335 613T304 584L267 569V371H516V571L447 589Q443 616 458 634T506 652H755Q763 631 757 613T726 584L689 569V81L765 63Q769 36 754 18T706 0Z" />
<glyph unicode="I" glyph-name="I" horiz-adv-x="370" d="M32 0Q30 5 29 11T28 22Q28 36 35 48T62 67L97 81V571L28 589Q24 616 39 634T87 652H336Q344 631 338 613T307 584L270 569V81L346 63Q350 36 335 18T287 0Q266 0 225 1T153 2Q109 2 71 1T32 0Z" />
<glyph unicode="J" glyph-name="J" horiz-adv-x="361" d="M270 569V110Q270 -15 203 -96T40 -177Q-6 -177 -32 -163T-58 -109Q-58 -100 -56 -90T-47 -67Q-26 -76 -6 -80T32 -85Q62 -85 79 -69T97 -6V571L28 589Q24 616 39 634T87 652H336Q344 631 338 613T307
584L270 569Z" />
<glyph unicode="K" glyph-name="K" horiz-adv-x="677" d="M151 2Q107 2 69 1T30 0Q28 5 27 11T26 22Q26 36 33 48T60 67L95 81V571L26 589Q22 616 37 634T85 652H334Q342 631 336 613T305 584L268 569V81L344 63Q348 36 333 18T285 0Q264 0 223 1T151 2ZM468 581L399
591Q392 612 407 632T453 652H667Q678 614 661 588T603 565L585 567L435 375L682 41Q665 15 631 1T568 -14Q513 -14 485 5T432 65L281 304L468 581Z" />
<glyph unicode="L" glyph-name="L" horiz-adv-x="561" d="M95 81V571L26 589Q22 616 37 634T85 652H366Q376 633 370 611T338 583L268 569V94L427 82L469 185Q481 215 505 217T551 205L507 0H28Q27 5 26 11T25 22Q25 36 32 48T59 67L95 81Z" />
<glyph unicode="M" glyph-name="M" horiz-adv-x="919" d="M134 571L65 589Q61 616 76 634T124 652H340L476 249L597 652H856Q863 621 851 602T807 575L783 569L840 82L917 65Q921 37 906 19T856 0Q835 0 792 1T718 2Q673 2 633 1T593 0Q591 5 590 11T589 22Q589
36 596 48T623 67L665 83L631 457L479 4H367L204 458L170 85L262 67Q266 40 251 20T203 0Q182 0 150 1T92 2Q66 2 44 2T13 0Q11 5 10 11T9 22Q9 36 16 48T43 67L78 81L134 571Z" />
<glyph unicode="N" glyph-name="N" horiz-adv-x="728" d="M89 652H252L546 233V568L452 586Q448 613 463 632T511 652H708Q716 631 708 614T676 587L644 572V10Q616 -3 601 -7T564 -11Q534 -11 510 3T466 46L191 435V85L291 67Q295 40 280 20T232 0Q211 0 174
1T107 2Q81 2 59 2T28 0Q26 5 25 11T24 22Q24 36 31 48T58 67L93 81V576L30 589Q26 616 41 634T89 652Z" />
<glyph unicode="O" glyph-name="O" horiz-adv-x="753" d="M348 -16Q201 -16 117 61T33 282Q33 457 128 561T405 666Q552 666 636 589T720 368Q720 193 625 89T348 -16ZM361 567Q301 567 257 517T213 345Q213 229 261 156T392 83Q452 83 496 133T540 305Q540 421
492 494T361 567Z" />
<glyph unicode="P" glyph-name="P" horiz-adv-x="615" d="M426 408Q426 467 394 516T268 575V270Q355 267 390 301T426 408ZM284 663Q443 663 519 604T595 447Q595 373 567 323T493 243T388 203T268 198V83L377 65Q381 38 366 19T318 0Q308 0 288 0T244 0T199
1T161 1Q117 1 84 1T31 -1Q28 4 27 11T26 24Q26 38 33 50T60 69L95 82V568L27 582Q21 601 28 616T63 641T145 657T284 663Z" />
<glyph unicode="Q" glyph-name="Q" horiz-adv-x="753" d="M681 -212Q600 -212 537 -162T400 -14Q388 -15 375 -15T348 -16Q201 -16 117 61T33 282Q33 457 128 561T405 666Q552 666 636 589T720 368Q720 241 670 150T522 16Q600 -29 676 -56T834 -101Q834 -143
798 -177T681 -212ZM361 567Q301 567 257 517T213 345Q213 229 261 156T392 83Q452 83 496 133T540 305Q540 421 492 494T361 567Z" />
<glyph unicode="R" glyph-name="R" horiz-adv-x="694" d="M31 -1Q28 4 27 11T26 24Q26 38 33 50T60 69L95 82V568L27 582Q20 600 26 615T59 640T140 657T284 663Q443 663 524 600T606 444Q606 370 568 323T479 257Q503 224 534 190T584 136Q614 106 643 84T706
42Q697 14 663 -8T578 -31Q521 -31 482 -1T403 92L326 214Q312 214 297 215T268 217V80L344 62Q348 35 333 17T285 -1Q264 -1 228 0T161 1Q117 1 84 1T31 -1ZM436 418Q436 475 393 521T268 575V286Q355 284 395 316T436 418Z" />
<glyph unicode="S" glyph-name="S" horiz-adv-x="554" d="M317 666Q365 666 415 654T499 625L477 501Q472 470 451 457T395 453L398 563Q382 574 359 580T310 586Q258 586 232 564T206 507Q206 479 224 458T292 416L364 386Q457 347 490 304T524 198Q524 109 456
47T264 -16Q145 -16 85 19T25 108Q25 147 45 175T131 210Q146 140 183 105T274 70Q323 70 342 92T362 142Q362 171 334 196T225 261L175 286Q105 321 81 363T57 455Q57 548 118 607T317 666Z" />
<glyph unicode="T" glyph-name="T" horiz-adv-x="619" d="M397 567V81L493 63Q497 36 482 18T434 0Q424 0 404 0T362 1T317 1T280 2Q258 2 233 2T186 1T150 1T135 0Q127 21 135 39T168 65L224 81V567H115L90 485Q81 456 58 447T11 451L26 652H593L608 460Q586
444 560 449T524 487L500 567H397Z" />
<glyph unicode="U" glyph-name="U" horiz-adv-x="696" d="M265 569V276Q265 170 301 134T404 97Q472 97 503 142T535 277V568L441 586Q437 613 452 632T500 652H697Q705 631 697 614T665 587L633 572V288Q633 140 559 62T353 -16Q222 -16 157 42T92 238V571L23
589Q19 616 34 634T82 652H331Q339 631 333 613T302 584L265 569Z" />
<glyph unicode="V" glyph-name="V" horiz-adv-x="662" d="M243 569L375 189L485 578L398 591Q391 612 406 632T452 652H655Q665 615 647 589T586 564L422 106Q395 32 361 9T252 -5L42 578L1 589Q-3 616 12 634T60 652H309Q317 631 311 613T280 584L243 569Z" />
<glyph unicode="W" glyph-name="W" horiz-adv-x="994" d="M918 564L777 107Q755 37 720 10T599 -4L483 411L396 114Q372 34 332 7T210 -4L42 578L1 589Q-3 616 12 634T60 652H309Q317 631 311 613T280 584L243 569L341 208L458 648L603 663L733 208L821 578L734
591Q727 612 742 632T788 652H987Q997 615 979 589T918 564Z" />
<glyph unicode="X" glyph-name="X" horiz-adv-x="639" d="M465 579L397 591Q390 612 405 632T451 652H632Q643 614 625 586T560 565L431 311L579 81L643 65Q647 37 632 19T583 0Q561 0 523 1T453 2Q407 2 364 1T321 0Q319 6 318 11T317 22Q317 36 325 47T351 67L376
78L261 261L178 79L238 65Q242 37 227 19T177 0Q155 0 136 1T85 2Q39 2 21 1T2 0Q0 6 -1 11T-2 22Q-2 36 5 48T32 67L67 81L209 342L63 575L9 589Q5 616 20 634T68 652H317Q325 631 319 613T288 584L265 575L385 384L465 579Z" />
<glyph unicode="Y" glyph-name="Y" horiz-adv-x="613" d="M243 569L351 341L434 580L371 591Q364 612 379 632T425 652H606Q617 614 599 586T534 565L393 246V81L489 63Q493 36 478 18T430 0Q420 0 400 0T358 1T313 1T276 2Q254 2 229 2T182 1T146 1T131 0Q123
21 131 39T164 65L220 81V241L42 578L1 589Q-3 616 12 634T60 652H309Q317 631 311 613T280 584L243 569Z" />
<glyph unicode="Z" glyph-name="Z" horiz-adv-x="574" d="M62 656L532 650L224 82L448 95L486 217Q526 218 538 199T547 150L531 0H33Q23 26 29 54T54 118L305 573L143 563L110 440Q81 435 61 450T46 514L62 656Z" />
<glyph unicode="[" glyph-name="bracketleft" horiz-adv-x="319" d="M180 -229L306 -228Q313 -266 294 -285T254 -304H55V784H298Q306 753 291 730T243 708L180 710V-229Z" />
<glyph unicode="\" glyph-name="backslash" horiz-adv-x="291" d="M137 -90L19 644Q10 701 19 728T57 762Q70 765 93 764T125 760Q127 741 131 713T140 657L273 -178Q280 -223 270 -245T234 -274Q218 -278 193 -277T164 -273L137 -90Z" />
<glyph unicode="]" glyph-name="bracketright" horiz-adv-x="319" d="M139 709L13 708Q6 746 25 765T65 784H264V-304H21Q13 -273 28 -250T76 -228L139 -230V709Z" />
<glyph unicode="^" glyph-name="asciicircum" horiz-adv-x="449" d="M45 407L146 641Q166 688 200 699T277 698L406 411Q425 368 398 334T318 305L211 547L111 308Q71 301 47 329T45 407Z" />
<glyph unicode="_" glyph-name="underscore" horiz-adv-x="520" d="M446 81Q453 65 454 40T446 0H73Q66 14 66 40T73 81H446Z" />
<glyph unicode="`" glyph-name="grave" horiz-adv-x="319" d="M243 545L111 613Q85 626 70 645T55 692Q55 712 63 728T83 752Q127 726 168 698T239 643Q265 618 264 586T243 545Z" />
<glyph unicode="a" glyph-name="a" horiz-adv-x="521" d="M516 63Q506 22 473 3T396 -16Q367 -16 342 -3T302 36Q277 9 249 -3T178 -16Q114 -16 71 21T28 122Q28 173 62 202T183 250L286 271V318Q286 358 275 378T231 397Q188 396 169 368T145 293Q88 290 70 311T51
355Q51 400 109 441T287 483Q374 483 412 440T450 312V161Q450 114 465 94T516 63ZM288 83Q287 95 287 109T286 138V210L234 193Q209 185 199 174T189 137Q189 105 206 89T255 73Q263 73 272 76T288 83Z" />
<glyph unicode="b" glyph-name="b" horiz-adv-x="584" d="M559 268Q559 129 485 57T268 -16Q215 -16 163 -8T67 12V621L-2 630Q-3 636 -4 641T-5 652Q-5 674 7 685T45 700L231 728V421Q259 446 290 464T367 483Q403 483 437 470T499 431T542 364T559 268ZM231
377V71Q240 68 253 67T279 65Q329 65 359 104T389 231Q389 302 352 340T258 378Q251 378 245 378T231 377Z" />
<glyph unicode="c" glyph-name="c" horiz-adv-x="440" d="M415 141Q422 134 426 126T430 107Q430 64 383 24T250 -16Q146 -16 86 40T25 208Q25 262 42 312T91 400T169 460T272 483Q344 483 379 455T415 386Q415 346 386 321T307 299Q305 349 295 374T260 399Q227
399 207 359T187 252Q187 186 217 144T308 101Q339 101 367 113T415 141Z" />
<glyph unicode="d" glyph-name="d" horiz-adv-x="585" d="M593 69Q593 38 578 20T528 -2L355 -17V45Q323 14 289 -1T210 -16Q178 -16 145 -3T86 39T42 110T25 213Q25 267 43 316T93 402T173 461T277 483Q302 483 321 481T355 475V621L274 630Q273 636 272 642T271
652Q271 674 283 684T321 698L519 728V78L593 69ZM355 93V386Q341 393 328 396T295 399Q252 399 227 360T202 248Q202 170 235 129T322 87Q331 87 340 88T355 93Z" />
<glyph unicode="e" glyph-name="e" horiz-adv-x="482" d="M441 145Q447 141 450 134T454 118Q454 72 401 28T253 -16Q139 -16 82 42T25 209Q25 262 42 311T90 399T165 460T264 483Q360 483 408 436T457 305Q457 286 455 267T448 232H188Q192 163 226 130T314 96Q354
96 385 109T441 145ZM190 294L321 296Q320 349 302 376T255 403Q223 403 207 372T190 294Z" />
<glyph unicode="f" glyph-name="f" horiz-adv-x="370" d="M352 63Q352 33 339 17T291 0Q281 0 261 0T217 1T172 1T134 2Q90 2 56 1T22 0Q20 6 19 12T18 23Q18 37 25 47T51 65L85 78V378L12 388Q11 394 10 399T9 410Q9 432 22 444T59 460L83 463Q83 579 136 655T311
732Q370 732 394 712T419 665Q419 641 407 623T370 590Q355 616 333 632T291 649Q269 649 259 637T249 594V468H355Q368 430 349 404T277 378H249V79L352 63Z" />
<glyph unicode="g" glyph-name="g" horiz-adv-x="541" d="M336 302Q336 352 318 380T266 408Q237 408 221 387T205 317Q205 263 224 237T275 211Q306 211 321 234T336 302ZM511 318Q511 228 441 182T266 135Q255 135 235 136T202 140Q196 133 193 125T190 111Q190
95 206 88T268 80H364Q461 80 498 47T535 -42Q535 -77 520 -115T472 -185T387 -236T263 -257Q150 -257 83 -224T16 -130Q16 -97 34 -71T94 -27Q73 -12 66 5T58 45Q58 79 79 105T143 157Q96 171 64 202T31 293Q31 377 97 430T281 483Q303 483 324 481T364 473Q382
542 406 569T466 596Q503 596 523 575T540 514Q511 505 484 487T437 445Q470 425 490 392T511 318ZM151 -57Q150 -64 150 -70T149 -83Q149 -133 181 -153T268 -173Q322 -173 349 -152T376 -108Q376 -89 359 -84T293 -76L255 -74Q224 -73 199 -69T151 -57Z" />
<glyph unicode="h" glyph-name="h" horiz-adv-x="605" d="M610 62Q610 33 594 17T546 0Q521 0 496 1T442 2Q414 2 387 2T332 0Q330 6 329 12T328 23Q328 37 335 49T362 68L377 74V257Q377 314 357 334T297 355Q284 355 270 353T242 346V78L296 65Q295 38 281 19T234
0Q213 0 185 1T127 2Q83 2 49 1T15 0Q13 6 12 12T11 23Q11 37 18 49T45 68L78 81V621L9 630Q8 636 7 641T6 652Q6 674 18 685T56 700L242 728V396Q282 439 321 461T406 483Q466 483 503 446T541 321V78L610 62Z" />
<glyph unicode="i" glyph-name="i" horiz-adv-x="324" d="M255 661Q255 626 234 598T164 570Q124 570 101 593T78 654Q78 684 99 713T170 743Q207 743 231 718T255 661ZM322 62Q322 33 306 17T258 0Q233 0 206 1T150 2Q106 2 66 1T26 0Q24 6 23 12T22 23Q22 37
29 49T56 68L89 81V382L21 391Q19 397 18 403T17 414Q17 431 29 444T72 461L253 488V78L322 62Z" />
<glyph unicode="j" glyph-name="j" horiz-adv-x="302" d="M254 661Q254 626 233 598T163 570Q123 570 100 593T77 654Q77 684 98 713T169 743Q206 743 230 718T254 661ZM252 488V43Q252 -30 232 -84T181 -174T109 -226T30 -244Q-16 -244 -42 -230T-68 -176Q-68
-166 -66 -156T-57 -134Q-36 -143 -13 -147T28 -152Q58 -152 73 -135T88 -73V382L20 391Q18 397 17 403T16 414Q16 431 28 444T71 461L252 488Z" />
<glyph unicode="k" glyph-name="k" horiz-adv-x="603" d="M242 728V78L296 65Q295 38 281 19T234 0Q213 0 185 1T127 2Q83 2 49 1T15 0Q13 6 12 12T11 23Q11 37 18 49T45 68L78 81V621L9 630Q8 636 7 641T6 652Q6 674 18 685T56 700L242 728ZM590 468Q590 423
568 399T506 380L483 383L401 294L554 103Q573 78 589 57T605 36Q581 12 546 1T480 -11Q434 -11 408 9T360 67L249 236L377 396L316 406Q309 427 324 447T370 468H590Z" />
<glyph unicode="l" glyph-name="l" horiz-adv-x="312" d="M311 62Q311 33 295 17T247 0Q222 0 195 1T139 2Q95 2 55 1T15 0Q13 6 12 12T11 23Q11 37 18 49T45 68L78 81V621L9 630Q8 636 7 641T6 652Q6 674 18 685T56 700L242 728V78L311 62Z" />
<glyph unicode="m" glyph-name="m" horiz-adv-x="917" d="M919 62Q919 33 903 17T855 0Q830 0 805 1T751 2Q723 2 696 2T641 0Q639 6 638 12T637 23Q637 37 644 49T671 68L686 74V257Q686 314 666 334T606 355Q593 355 578 353T550 345Q551 339 551 332T551 314V78L605
65Q604 38 590 19T543 0Q522 0 501 1T452 2Q424 2 397 2T342 0Q340 5 339 11T337 24Q337 39 345 50T372 68L387 73V257Q387 314 367 334T307 355Q294 355 280 353T252 346V78L306 65Q305 38 291 19T244 0Q223 0 195 1T137 2Q93 2 59 1T25 0Q23 6 22 12T21 23Q21
37 28 49T55 68L88 81V382L20 391Q18 397 17 403T16 414Q16 431 28 444T71 461L252 488V396Q292 439 331 461T416 483Q473 483 502 457T543 388Q589 439 629 461T715 483Q775 483 812 446T850 321V78L919 62Z" />
<glyph unicode="n" glyph-name="n" horiz-adv-x="617" d="M620 62Q620 33 604 17T556 0Q531 0 506 1T452 2Q424 2 397 2T342 0Q340 6 339 12T338 23Q338 37 345 49T372 68L387 74V257Q387 314 367 334T307 355Q294 355 280 353T252 346V78L306 65Q305 38 291 19T244
0Q223 0 195 1T137 2Q93 2 59 1T25 0Q23 6 22 12T21 23Q21 37 28 49T55 68L88 81V382L20 391Q18 397 17 403T16 414Q16 431 28 444T71 461L252 488V396Q292 439 331 461T416 483Q476 483 513 446T551 321V78L620 62Z" />
<glyph unicode="o" glyph-name="o" horiz-adv-x="571" d="M546 254Q546 135 474 60T272 -16Q223 -16 178 -4T99 35T45 107T25 217Q25 339 101 411T300 483Q421 483 483 421T546 254ZM373 221Q373 303 345 349T273 395Q235 395 217 357T198 250Q198 151 228 112T295
72Q330 72 351 105T373 221Z" />
<glyph unicode="p" glyph-name="p" horiz-adv-x="597" d="M244 377V68Q253 65 266 64T292 62Q342 62 372 101T402 227Q402 298 365 338T271 378Q264 378 258 378T244 377ZM345 -166Q345 -196 332 -212T284 -229Q274 -229 254 -229T210 -228T165 -228T127 -227Q83
-227 50 -228T17 -229Q15 -223 14 -217T13 -206Q13 -192 20 -182T46 -164L80 -151V382L12 391Q10 397 9 403T8 414Q8 431 20 444T63 461L242 488V421Q270 446 302 464T380 483Q416 483 450 470T512 429T555 361T572 264Q572 139 505 62T304 -16Q289 -16 273 -14T244
-9V-149L345 -166Z" />
<glyph unicode="q" glyph-name="q" horiz-adv-x="578" d="M593 -167Q593 -195 577 -212T526 -229Q505 -229 457 -228T378 -227Q334 -227 298 -228T261 -229Q259 -225 258 -218T256 -206Q256 -192 263 -182T290 -166L356 -148V32Q325 8 295 -4T221 -16Q140 -16
83 44T26 210Q26 332 98 407T281 483Q324 483 360 474T424 447L520 485V-150L593 -167ZM356 84V389Q340 397 327 400T296 404Q255 404 229 363T203 248Q203 156 238 118T328 79Q337 79 343 80T356 84Z" />
<glyph unicode="r" glyph-name="r" horiz-adv-x="414" d="M355 63Q355 33 342 17T294 0Q284 0 264 0T220 1T175 1T137 2Q93 2 59 1T25 0Q23 6 22 12T21 23Q21 37 28 47T54 65L88 78V382L20 391Q18 397 17 403T16 414Q16 431 28 444T71 461L252 488V373Q271 431
294 458T352 486Q380 486 400 464T421 401Q421 367 412 339T382 288Q362 297 341 301T297 306Q283 306 272 301T252 287V80L355 63Z" />
<glyph unicode="s" glyph-name="s" horiz-adv-x="454" d="M403 454L393 371Q389 339 363 329T307 331V395Q294 400 278 403T245 406Q212 406 199 395T186 370Q186 355 194 344T232 321L293 298Q367 269 397 238T427 156Q427 81 374 33T227 -16Q123 -16 75 13T27
95Q27 119 45 147T124 171Q128 124 155 96T229 68Q260 68 273 79T287 105Q287 120 274 133T205 172L136 204Q96 223 75 249T53 321Q53 382 100 432T264 483Q300 483 336 476T403 454Z" />
<glyph unicode="t" glyph-name="t" horiz-adv-x="369" d="M349 102Q356 97 359 90T363 74Q363 41 324 14T215 -14Q149 -14 113 15T76 121Q76 151 76 188T78 260T80 327T82 379L11 389Q10 395 9 400T8 411Q8 433 21 445T58 461L86 465L91 570Q121 587 162 600T248
617L245 468H354Q357 460 358 453T360 438Q360 411 339 395T276 379H243V142Q243 108 254 97T291 86Q306 86 322 91T349 102Z" />
<glyph unicode="u" glyph-name="u" horiz-adv-x="601" d="M609 69Q609 38 594 20T544 -2L371 -17V71Q331 28 292 6T207 -16Q147 -16 110 21T72 146V382L4 391Q2 397 1 403T0 414Q0 431 12 444T55 461L236 488V210Q236 153 256 133T316 112Q329 112 343 114T371
121V382L303 391Q301 397 300 403T299 414Q299 431 311 444T354 461L535 488V78L609 69Z" />
<glyph unicode="v" glyph-name="v" horiz-adv-x="519" d="M521 468Q528 438 514 416T473 389L365 100Q345 46 307 15T191 -16L35 392L8 397Q1 422 15 445T66 468H259Q266 440 252 420T215 394L294 160L366 397L310 407Q304 435 319 451T356 468H521Z" />
<glyph unicode="w" glyph-name="w" horiz-adv-x="778" d="M780 468Q787 438 773 416T732 389L649 122Q627 50 592 19T469 -13L381 257L332 97Q318 50 286 19T174 -13L35 392L8 397Q1 422 15 445T66 468H259Q266 440 252 420T215 394L276 161L369 464H477L577 161L632
397L576 407Q570 435 585 451T622 468H780Z" />
<glyph unicode="x" glyph-name="x" horiz-adv-x="534" d="M512 468Q519 438 506 416T466 390L381 232L471 81L536 67Q536 36 521 18T471 -2L321 -12L204 197L152 82L240 63Q239 37 226 19T180 0Q160 0 140 0T92 1Q64 1 46 1T12 0Q10 5 9 11T7 23Q7 38 16 50T46
72L60 78L157 267L84 387L24 391Q22 397 21 403T20 414Q20 431 32 444T75 461L226 483L334 298L376 397L320 407Q314 435 329 451T366 468H512Z" />
<glyph unicode="y" glyph-name="y" horiz-adv-x="519" d="M521 468Q528 434 514 412T473 384L326 5Q267 -147 209 -198T80 -249Q31 -249 8 -226T-15 -168Q-15 -154 -11 -141T1 -115Q15 -122 37 -126T82 -131Q123 -131 149 -112T203 -45L35 392L8 397Q1 422 15
445T66 468H259Q266 440 252 420T215 394L297 153L371 392L310 403Q303 434 319 451T359 468H521Z" />
<glyph unicode="z" glyph-name="z" horiz-adv-x="483" d="M461 468L214 71L366 76L403 180Q428 184 447 167T461 107L447 0H18Q14 22 20 47T48 107L250 405L128 396L103 309Q70 303 55 317T43 360L53 475Q150 472 252 471T461 468Z" />
<glyph unicode="{" glyph-name="braceleft" horiz-adv-x="398" d="M385 -230Q393 -260 366 -283T290 -307Q187 -307 154 -267T120 -171Q120 -118 133 -42T146 112Q146 156 118 178T30 204Q26 215 26 241T30 278Q97 282 120 302T144 353Q144 369 141 404T134 479T127
562T123 634Q123 706 172 747T297 788Q358 788 373 758T374 709Q360 712 342 714T310 716Q270 716 256 698T242 653Q242 645 246 612T254 537T262 450T266 370Q266 319 247 290T189 248Q231 235 249 206T267 133Q267 62 255 -12T243 -143Q243 -191 260 -212T323
-233Q343 -233 356 -232T385 -230Z" />
<glyph unicode="|" glyph-name="bar" horiz-adv-x="262" d="M182 750V-220Q164 -230 133 -230T80 -224V753Q102 761 132 761T182 750Z" />
<glyph unicode="}" glyph-name="braceright" horiz-adv-x="398" d="M13 711Q5 741 32 764T108 788Q211 788 244 748T278 652Q278 599 265 523T252 369Q252 325 280 303T368 277Q372 266 372 240T368 203Q301 199 278 179T254 128Q254 112 257 77T264 2T271 -81T275
-153Q275 -225 226 -266T101 -307Q40 -307 25 -277T24 -228Q38 -231 56 -233T88 -235Q128 -235 142 -217T156 -172Q156 -164 152 -131T144 -56T136 31T132 111Q132 162 151 191T209 233Q167 246 149 275T131 348Q131 419 143 493T155 624Q155 672 138 693T75 714Q55
714 42 713T13 711Z" />
<glyph unicode="~" glyph-name="asciitilde" horiz-adv-x="551" d="M503 284Q503 234 465 195T367 156Q338 156 312 166T261 187T214 209T169 219Q134 219 113 201T80 152Q66 153 57 167T48 204Q48 255 87 290T186 325Q216 325 242 317T293 299T339 281T384 272Q417
272 438 289T473 333Q486 332 494 319T503 284Z" />
</font>
</defs>
</svg>
