<?xml version="1.0" standalone="no"?> <!DOCTYPE svg PUBLIC "-//W3C//DTD SVG 1.0//EN" "http://www.w3.org/TR/2001/REC-SVG-20010904/DTD/svg10.dtd" > <svg xmlns="http://www.w3.org/2000/svg" width="100%" height="100%">
<defs >
<font horiz-adv-x="565" ><font-face
    font-family=""
    units-per-em="1000"
    panose-1="2 0 6 3 6 0 0 2 0 4"
    ascent="985"
    descent="-342"
    alphabetic="0" />
<missing-glyph horiz-adv-x="602" d="M65 661H537V0H65V661ZM110 45H491V614H110V45ZM281 559Q353 559 388 529T423 454Q423 420 404 398T338 347Q291 318 281 305T271 272Q271 264 272 256T278 240Q251 232 236 245T221 287Q221 312 239 331T306 376Q356 404
369 418T383 447Q383 469 361 484T295 500Q259 500 238 493T207 479Q204 484 201 491T198 505Q198 533 224 546T281 559ZM264 181Q280 181 291 171T303 142Q303 120 292 108T261 96Q243 96 233 107T223 139Q223 158 234 169T264 181Z" />
<glyph unicode=" " glyph-name="space" horiz-adv-x="198" />
<glyph unicode="!" glyph-name="exclam" horiz-adv-x="287" d="M151 756Q182 756 199 735T216 673Q216 586 194 494T172 286Q172 274 174 252T179 218Q175 215 169 213T155 211Q126 211 112 243T98 373Q98 417 101 484T105 596Q105 630 102 665T92 734Q104 744
118 750T151 756ZM144 -6Q116 -6 101 10T85 57Q85 86 102 104T150 122Q176 122 192 107T208 63Q208 30 191 12T144 -6Z" />
<glyph unicode="&quot;" glyph-name="quotedbl" horiz-adv-x="400" d="M274 470Q262 530 257 580T252 671Q252 695 264 709T301 724Q326 724 337 711T348 672Q348 629 342 580T324 470Q313 471 300 471T274 470ZM52 671Q52 695 64 709T101 724Q126 724 137 711T148
672Q148 629 142 580T124 470Q113 471 100 471T74 470Q62 530 57 580T52 671Z" />
<glyph unicode="#" glyph-name="numbersign" horiz-adv-x="546" d="M352 23Q349 3 338 -5T312 -13Q303 -13 296 -11T284 -7L303 129H209L194 23Q191 3 180 -5T154 -13Q145 -13 138 -11T126 -7L145 129H51Q46 140 46 157T50 187H154L169 301H73Q68 312 68 329T72
359H177L194 476Q197 496 208 504T234 512Q243 512 250 510T262 506L241 359H335L352 476Q355 496 366 504T392 512Q401 512 408 510T420 506L399 359H496Q501 346 501 330T496 301H391L376 187H474Q479 174 479 158T474 129H367L352 23ZM312 187L327 301H233L218
187H312Z" />
<glyph unicode="$" glyph-name="dollar" horiz-adv-x="470" d="M211 318V454Q181 449 167 432T152 392Q152 366 164 350T211 318ZM270 48Q301 55 316 73T331 117Q331 142 318 160T270 195V48ZM270 -148Q260 -154 242 -154T211 -150V-13Q138 -10 91 18T43 98Q43
131 62 150T118 168Q118 120 141 88T211 47V219L183 230Q134 249 106 281T78 363Q78 422 114 460T211 509V658Q224 663 241 663T270 657V512Q307 511 339 505T396 488L389 409Q386 375 370 364T327 357V443Q317 447 302 451T270 456V292Q342 261 377 233T413 143Q413
81 374 41T270 -9V-148Z" />
<glyph unicode="%" glyph-name="percent" horiz-adv-x="470" d="M360 454L163 23Q153 0 148 -16T139 -50Q112 -59 98 -36T98 19L303 469Q312 488 317 504T326 539Q357 540 366 514T360 454ZM31 401Q31 441 58 466T132 492Q170 492 195 473T220 413Q220 368 193
342T119 316Q78 316 55 336T31 401ZM123 359Q143 359 152 371T162 403Q162 421 155 435T126 449Q107 449 97 438T86 402Q86 384 94 372T123 359ZM250 91Q250 131 277 156T351 182Q389 182 414 163T439 103Q439 58 412 32T338 6Q297 6 274 26T250 91ZM342 49Q362
49 371 61T381 93Q381 111 374 125T345 139Q326 139 316 128T305 92Q305 74 313 62T342 49Z" />
<glyph unicode="&amp;" glyph-name="ampersand" horiz-adv-x="901" d="M824 529Q824 443 744 386T514 322Q514 274 502 224T465 132Q560 60 610 41T715 21Q741 21 759 27T788 43Q795 40 800 33T806 14Q806 -14 777 -39T688 -64Q634 -64 568 -36T410 64Q373 28
329 7T221 -14Q137 -14 101 26T64 123Q64 171 92 209T171 279Q133 321 122 349T111 406Q111 455 150 501T277 548Q331 548 364 521T397 447Q397 428 388 407T363 371Q473 367 545 377T660 408T718 455T735 510Q735 533 726 552T698 585Q705 597 720 605T751 613Q785
613 804 589T824 529ZM451 321Q412 323 372 327T304 337Q314 353 320 374T326 413Q326 442 306 467T245 492Q213 492 197 474T180 434Q180 423 183 409T202 370T254 310T353 221Q369 208 388 193T421 167Q437 203 444 239T451 321ZM372 94Q327 131 278 175T200
248Q172 220 161 194T149 144Q149 98 177 73T255 47Q286 47 317 59T372 94Z" />
<glyph unicode="&apos;" glyph-name="quotesingle" horiz-adv-x="200" d="M52 671Q52 695 64 709T101 724Q126 724 137 711T148 672Q148 629 142 580T124 470Q113 471 100 471T74 470Q62 530 57 580T52 671Z" />
<glyph unicode="(" glyph-name="parenleft" horiz-adv-x="302" d="M260 784Q270 784 278 779T291 763Q259 729 231 676T182 556T149 411T137 248Q137 149 151 64T188 -88T237 -202T289 -274Q284 -285 273 -291T249 -297Q220 -297 182 -256T107 -118Q76 -35 66
57T55 237Q56 397 88 512T169 706Q194 745 217 764T260 784Z" />
<glyph unicode=")" glyph-name="parenright" horiz-adv-x="302" d="M56 -297Q46 -297 38 -292T25 -276Q57 -242 85 -189T134 -69T167 76T179 239Q179 338 165 423T128 575T79 689T27 761Q32 772 43 778T67 784Q96 784 134 743T209 605Q240 522 250 430T261 250Q260
90 228 -25T147 -219Q122 -258 99 -277T56 -297Z" />
<glyph unicode="*" glyph-name="asterisk" horiz-adv-x="408" d="M251 542L354 407Q343 386 312 383T266 402L196 507L91 374Q66 377 57 405T72 457L156 542L26 609Q25 637 51 652T107 648L175 596L182 768Q213 781 235 766T252 713L235 589L322 638Q348 654 369
639T385 599L251 542Z" />
<glyph unicode="+" glyph-name="plus" horiz-adv-x="470" d="M268 41Q256 34 234 34T197 38V210H50Q45 222 45 238T49 268H197V437Q212 443 233 443T268 435V268H421Q426 254 426 239T421 210H268V41Z" />
<glyph unicode="," glyph-name="comma" horiz-adv-x="263" d="M203 16Q203 -43 160 -88T69 -134Q56 -134 50 -129T43 -113Q84 -91 105 -67T127 -11Q127 17 108 31T47 49Q43 79 61 100T113 121Q155 121 179 96T203 16Z" />
<glyph unicode="-" glyph-name="hyphen" horiz-adv-x="336" d="M290 264Q295 251 295 235T287 206H46Q41 217 41 234T46 264H290Z" />
<glyph unicode="." glyph-name="period" horiz-adv-x="233" d="M120 122Q146 122 162 107T178 63Q178 30 161 12T114 -6Q86 -6 71 10T55 57Q55 86 72 104T120 122Z" />
<glyph unicode="/" glyph-name="slash" horiz-adv-x="266" d="M236 632L94 -272Q91 -273 86 -274T75 -276Q38 -276 36 -245T39 -178L173 657Q179 693 182 716T187 759Q221 768 232 750T244 704Q244 689 242 669T236 632Z" />
<glyph unicode="0" glyph-name="zero" horiz-adv-x="470" d="M220 -14Q128 -14 84 51T40 244Q40 357 95 434T250 512Q342 512 386 447T430 254Q430 141 375 64T220 -14ZM245 49Q286 49 312 90T338 240Q338 351 305 400T225 450Q184 450 158 408T132 258Q132 147
165 98T245 49Z" />
<glyph unicode="1" glyph-name="one" horiz-adv-x="470" d="M287 56L405 39Q403 22 391 11T362 0Q331 0 291 1T220 2Q189 2 154 2T86 0Q85 1 85 4T84 11Q84 21 91 28T112 39L196 56V423Q162 422 148 421T121 420Q100 420 93 430T88 459Q135 468 192 484T287 512V56Z" />
<glyph unicode="2" glyph-name="two" horiz-adv-x="470" d="M419 65Q419 29 393 12T316 -6Q286 -6 243 -5T161 -3T94 -1T66 0L47 47Q118 115 165 162T239 243T277 303T288 354Q288 391 265 415T204 440Q161 440 138 420T106 359Q86 359 76 370T66 400Q66 442 108
477T232 512Q304 512 345 475T387 376Q387 320 340 256T153 74Q258 67 315 74T407 97Q412 90 415 81T419 65Z" />
<glyph unicode="3" glyph-name="three" horiz-adv-x="470" d="M208 440Q165 440 146 419T117 359Q97 359 87 370T77 400Q77 442 119 477T243 512Q309 512 346 475T384 391Q384 348 357 317T284 273Q343 263 374 230T406 148Q406 81 354 34T203 -14Q135 -14 97
11T59 83Q59 104 73 118T103 132Q114 90 139 68T214 45Q251 45 280 66T310 128Q310 168 280 195T188 228L181 279Q235 284 261 307T288 365Q288 395 267 417T208 440Z" />
<glyph unicode="4" glyph-name="four" horiz-adv-x="470" d="M256 56V138H55Q48 145 40 157T25 181Q46 215 75 260T137 352T201 440T256 512Q281 512 307 508T347 499V193Q366 193 391 195T431 205Q447 173 433 156T390 138H347V56L435 39Q433 22 421 11T392 0Q361
0 331 1T270 2Q239 2 214 2T156 0Q155 1 155 4T154 11Q154 21 161 28T183 39L256 56ZM256 431Q242 412 220 381T175 315T131 247T96 192H256V431Z" />
<glyph unicode="5" glyph-name="five" horiz-adv-x="470" d="M406 156Q406 82 354 34T203 -14Q135 -14 97 11T59 83Q59 104 73 118T103 132Q114 90 139 68T214 45Q251 45 280 67T310 136Q310 203 256 230T105 245L119 499Q150 498 188 497T265 496T336 498T391
503Q404 469 384 442T306 414Q275 414 243 417T175 428L169 308Q285 321 345 280T406 156Z" />
<glyph unicode="6" glyph-name="six" horiz-adv-x="470" d="M57 225Q57 361 116 436T292 512Q343 512 380 490T418 425Q418 409 408 399T382 386Q371 418 348 433T282 449Q228 449 196 411T156 286Q174 299 201 306T263 314Q326 314 371 274T416 160Q416 87 368
37T240 -14Q157 -14 107 46T57 225ZM154 242V230Q153 159 179 102T255 44Q286 44 304 69T323 137Q323 194 292 225T217 256Q199 256 185 253T154 242Z" />
<glyph unicode="7" glyph-name="seven" horiz-adv-x="470" d="M426 501L222 52Q206 18 187 2T146 -14Q126 -14 115 -8T96 7L345 428Q314 420 263 415T166 409Q110 409 86 432T73 504Q105 501 148 500T240 498T336 498T426 501Z" />
<glyph unicode="8" glyph-name="eight" horiz-adv-x="470" d="M409 131Q409 67 357 27T227 -14Q134 -14 93 24T51 120Q51 163 78 200T151 260Q103 292 89 319T75 376Q75 429 116 470T243 512Q321 512 355 474T389 390Q389 351 370 320T314 259Q369 224 389 198T409
131ZM305 374Q305 405 281 432T218 460Q185 460 170 444T155 404Q155 379 173 356T246 301Q249 300 258 294T270 287Q290 306 297 325T305 374ZM314 110Q314 137 292 166T197 233Q167 211 152 186T137 131Q137 96 162 70T236 44Q280 44 297 66T314 110Z" />
<glyph unicode="9" glyph-name="nine" horiz-adv-x="470" d="M316 256V268Q317 339 291 396T215 454Q184 454 166 429T147 361Q147 304 178 273T253 242Q271 242 285 245T316 256ZM413 273Q413 137 354 62T178 -14Q127 -14 90 8T52 73Q52 89 62 99T88 112Q99 80
122 65T188 49Q242 49 274 87T314 212Q296 199 269 192T207 184Q144 184 99 224T54 338Q54 411 102 461T230 512Q313 512 363 452T413 273Z" />
<glyph unicode=":" glyph-name="colon" horiz-adv-x="265" d="M136 432Q163 432 179 416T195 372Q195 338 178 321T130 303Q102 303 86 319T70 366Q70 396 87 414T136 432ZM130 18Q102 18 86 34T70 81Q70 111 87 129T136 147Q163 147 179 131T195 87Q195 53 178
36T130 18Z" />
<glyph unicode=";" glyph-name="semicolon" horiz-adv-x="265" d="M136 432Q163 432 179 416T195 372Q195 338 178 321T130 303Q102 303 86 319T70 366Q70 396 87 414T136 432ZM213 16Q213 -43 170 -88T79 -134Q66 -134 60 -129T53 -113Q94 -91 115 -67T137 -11Q137
17 118 31T57 49Q53 79 71 100T123 121Q165 121 189 96T213 16Z" />
<glyph unicode="&lt;" glyph-name="less" horiz-adv-x="470" d="M309 21L85 227L315 449Q328 445 340 433T358 407L174 235L357 69Q353 56 338 40T309 21Z" />
<glyph unicode="=" glyph-name="equal" horiz-adv-x="470" d="M411 292H59Q54 304 54 320T58 350H411Q416 336 416 321T411 292ZM411 133H59Q54 145 54 161T58 191H411Q416 177 416 162T411 133Z" />
<glyph unicode="&gt;" glyph-name="greater" horiz-adv-x="470" d="M161 449L385 243L155 21Q142 25 130 37T112 63L296 235L113 401Q117 414 132 430T161 449Z" />
<glyph unicode="?" glyph-name="question" horiz-adv-x="437" d="M186 700Q296 700 350 653T405 540Q405 487 376 454T274 376Q202 331 187 311T171 263Q171 250 174 237T182 211Q142 201 119 221T95 284Q95 321 123 351T224 420Q302 462 323 483T344 530Q344
563 310 585T208 608Q154 608 122 599T75 579Q69 586 65 597T61 618Q61 660 99 680T186 700ZM156 -6Q128 -6 113 10T97 57Q97 86 114 104T162 122Q188 122 204 107T220 63Q220 30 203 12T156 -6Z" />
<glyph unicode="@" glyph-name="at" horiz-adv-x="949" d="M541 684Q626 684 694 659T808 591T879 487T904 358Q904 273 877 204T806 86T710 12T605 -14Q565 -14 551 7T536 63Q536 80 539 105T546 149L541 151Q506 76 466 31T378 -14Q341 -14 308 24T275 151Q275
230 296 291T352 392T431 454T521 475Q553 475 590 466T657 441Q644 390 633 334T615 223Q613 204 611 176T609 132Q609 85 617 71T648 56Q685 56 717 77T772 135T809 220T823 323Q823 454 747 536T522 619Q441 619 370 591T246 509T163 375T132 191Q132 27 216
-66T457 -159Q531 -159 588 -139T680 -95Q684 -99 687 -104T691 -121Q691 -135 673 -154T621 -191T538 -221T428 -234Q243 -234 144 -126T45 159Q45 264 77 360T171 527T327 641T541 684ZM552 295L573 392Q557 400 540 404T504 409Q432 409 393 345T353 180Q353
130 366 99T409 68Q427 68 448 88T490 141T526 214T552 295Z" />
<glyph unicode="A" glyph-name="A" horiz-adv-x="681" d="M639 0Q608 0 582 1T525 2Q494 2 469 2T411 0Q410 1 410 4T409 11Q409 21 416 28T437 39L507 55L440 249H220L157 56L256 39Q254 22 242 11T213 0Q182 0 159 1T105 2Q80 2 57 2T14 0Q10 12 14 24T37 42L80
56L281 618Q289 641 306 652T349 664Q360 664 369 663T391 660L610 52L682 40Q680 23 668 12T639 0ZM421 303L328 575L237 303H421Z" />
<glyph unicode="B" glyph-name="B" horiz-adv-x="554" d="M26 605Q25 608 25 609T25 613Q25 635 66 646T235 658Q358 658 412 615T467 501Q467 447 438 405T354 351Q436 341 478 298T521 192Q521 103 462 50T306 -3Q263 -3 228 -1T139 2Q108 2 83 2T25 0Q24 1
24 4T23 11Q23 21 30 28T51 39L110 57V595L26 605ZM201 363H269Q321 363 350 397T380 484Q380 533 348 570T237 607Q227 607 218 607T201 605V363ZM201 57Q223 53 248 50T304 47Q359 47 394 78T430 170Q430 233 377 274T201 316V57Z" />
<glyph unicode="C" glyph-name="C" horiz-adv-x="616" d="M587 199L553 35Q510 14 456 0T331 -14Q189 -14 112 67T34 309Q34 383 56 448T122 561T232 636T387 664Q439 664 487 656T561 636L541 519Q537 494 526 483T499 471Q494 471 490 472T481 475L491 587Q466
597 434 602T370 607Q251 607 191 536T130 350Q130 207 189 128T367 48Q400 48 430 53T487 69L528 171Q535 187 543 195T565 204Q570 204 576 203T587 199Z" />
<glyph unicode="D" glyph-name="D" horiz-adv-x="691" d="M316 -2Q294 -2 247 0T160 2Q122 2 89 2T25 0Q24 1 24 4T23 11Q23 21 30 29T51 41L110 59V595L26 605Q25 607 25 609T25 613Q25 622 32 630T63 645T130 654T248 658Q457 658 552 574T648 336Q648 263 628
201T567 94T464 24T316 -2ZM201 65Q227 59 256 56T328 52Q421 52 486 114T552 303Q552 456 467 530T201 605V65Z" />
<glyph unicode="E" glyph-name="E" horiz-adv-x="566" d="M109 603L28 610Q25 627 38 639T85 652H479L486 529Q487 507 471 498T436 494L421 590L200 598V356H375Q376 378 382 401T414 424Q419 424 424 423T433 420Q431 374 430 342T429 276Q429 248 409 238T369
233L372 302H200V64L442 52L470 125Q481 155 499 162T536 160L500 0H32Q31 1 31 4T30 11Q30 21 37 29T58 41L109 56V603Z" />
<glyph unicode="F" glyph-name="F" horiz-adv-x="490" d="M361 280H200V56L318 39Q316 22 305 11T277 0Q246 0 214 1T138 2Q107 2 82 2T24 0Q23 1 23 4T22 11Q22 21 29 28T50 39L109 57V603L28 610Q25 627 38 639T85 652H469L476 529Q477 507 461 498T426 494L411
590L200 598V334H364Q365 356 371 379T403 402Q408 402 413 401T422 398Q420 352 419 320T418 254Q418 226 398 216T358 211L361 280Z" />
<glyph unicode="G" glyph-name="G" horiz-adv-x="642" d="M566 53Q525 24 460 5T331 -14Q189 -14 112 67T34 309Q34 383 56 448T122 561T232 636T387 664Q439 664 487 656T561 636L541 519Q537 494 526 483T499 471Q494 471 490 472T481 475L491 587Q466 597 434
602T370 607Q251 607 191 536T130 350Q130 207 189 128T367 48Q399 48 428 54T477 68V227L353 233Q350 249 361 263T399 277H633Q634 273 635 270T636 262Q636 249 628 241T600 230L566 226V53Z" />
<glyph unicode="H" glyph-name="H" horiz-adv-x="754" d="M746 39Q744 22 732 11T703 0Q672 0 642 1T581 2Q550 2 525 2T467 0Q466 1 466 4T465 11Q465 21 472 28T493 39L557 56V311H202V56L300 39Q298 22 286 11T257 0Q226 0 196 1T135 2Q104 2 79 2T21 0Q20
1 20 4T19 11Q19 21 26 28T47 39L111 56V601L30 610Q27 627 40 639T87 652H294Q298 632 287 620T253 606L202 601V365H557V601L476 610Q473 627 486 639T533 652H734Q738 632 727 620T693 606L648 601V56L746 39Z" />
<glyph unicode="I" glyph-name="I" horiz-adv-x="317" d="M303 39Q301 22 289 11T260 0Q229 0 199 1T138 2Q107 2 82 2T24 0Q23 1 23 4T22 11Q22 21 29 28T50 39L114 56V601L33 610Q30 627 43 639T90 652H291Q295 632 284 620T250 606L205 601V56L303 39Z" />
<glyph unicode="J" glyph-name="J" horiz-adv-x="319" d="M117 601L28 610Q25 627 38 639T85 652H294Q298 632 287 620T253 606L208 601V47Q208 -82 151 -140T24 -199Q-9 -199 -27 -184T-46 -144Q-46 -134 -44 -125T-39 -109Q-27 -116 -5 -121T43 -127Q84 -127
100 -101T117 7V601Z" />
<glyph unicode="K" glyph-name="K" horiz-adv-x="626" d="M300 39Q298 22 286 11T257 0Q226 0 196 1T135 2Q104 2 79 2T21 0Q20 1 20 4T19 11Q19 21 26 28T47 39L111 56V601L30 610Q27 627 40 639T87 652H294Q298 632 287 620T253 606L202 601V56L300 39ZM479
131Q537 62 566 35T623 -6Q616 -22 598 -31T557 -40Q515 -40 481 -15T400 71Q400 71 380 97T331 162T271 244T216 322Q239 347 271 385T334 464T393 542T436 601L373 615Q373 640 387 646T423 652H596Q603 618 584 603T519 590Q519 590 491 556T426 479T356 394T309
340L479 131Z" />
<glyph unicode="L" glyph-name="L" horiz-adv-x="553" d="M502 0H27Q26 1 26 4T25 11Q25 21 32 28T52 40L109 57V601L28 610Q25 627 38 639T85 652H302Q306 632 295 620T261 606L200 601V64L442 52L474 133Q483 156 501 162T536 161L502 0Z" />
<glyph unicode="M" glyph-name="M" horiz-adv-x="841" d="M470 73Q459 42 439 20T391 -10L194 503L158 56L257 39Q255 22 243 11T214 0Q183 0 160 1T106 2Q81 2 58 2T15 0Q11 12 15 24T38 42L85 57L144 592L64 610Q61 627 74 639T121 652H236L432 137L622 652H793Q799
628 781 616T708 594L763 54L849 39Q847 22 835 11T806 0Q775 0 750 1T694 2Q663 2 643 2T590 0Q589 1 589 4T588 11Q588 21 595 28T616 39L674 54L624 503L470 73Z" />
<glyph unicode="N" glyph-name="N" horiz-adv-x="704" d="M585 -14Q565 -14 548 -4T509 37L176 485V56L275 39Q273 22 261 11T232 0Q201 0 178 1T124 2Q99 2 71 2T23 0Q19 12 23 25T46 42L103 57V592L23 610Q20 627 33 639T80 652H164L551 138V601L457 610Q454
627 467 639T514 652H694Q698 632 687 620T653 606L624 603V-6Q615 -10 606 -12T585 -14Z" />
<glyph unicode="O" glyph-name="O" horiz-adv-x="672" d="M367 664Q499 664 571 588T644 363Q644 180 552 83T304 -14Q173 -14 104 62T34 288Q34 454 123 559T367 664ZM337 52Q431 52 489 118T548 319Q548 437 498 517T334 598Q235 598 182 526T129 338Q129 189
187 121T337 52Z" />
<glyph unicode="P" glyph-name="P" horiz-adv-x="542" d="M289 286Q358 286 395 327T432 446Q432 524 387 566T259 608Q244 608 229 607T201 605V295Q217 291 241 289T289 286ZM319 39Q317 22 306 11T278 0Q247 0 215 1T139 2Q108 2 83 2T25 0Q24 1 24 4T23 11Q23
21 30 28T51 39L110 57V595L26 605Q25 607 25 609T25 613Q26 636 71 647T261 658Q400 658 462 609T525 473Q525 405 504 360T447 287T366 248T270 236Q249 236 230 237T201 240V56L319 39Z" />
<glyph unicode="Q" glyph-name="Q" horiz-adv-x="672" d="M816 -207Q753 -207 689 -191T555 -144Q483 -111 426 -81T309 -14H304Q173 -14 104 62T34 288Q34 454 123 559T367 664Q499 664 571 588T644 363Q644 214 582 122T412 0Q442 -12 495 -33T605 -75Q656 -94
729 -113T866 -133Q883 -133 898 -131T922 -125Q925 -129 926 -134T928 -147Q928 -172 898 -189T816 -207ZM337 52Q431 52 489 118T548 319Q548 437 498 517T334 598Q235 598 182 526T129 338Q129 189 187 121T337 52Z" />
<glyph unicode="R" glyph-name="R" horiz-adv-x="611" d="M568 -40Q523 -40 496 -22T428 53L276 263Q258 262 238 261T201 260V54L304 39Q302 22 290 11T261 0Q230 0 200 1T139 2Q108 2 83 2T25 0Q24 1 24 4T23 11Q23 21 30 28T51 39L110 57V595L26 605Q25 608
25 610T25 613Q25 624 34 632T68 646T139 655T256 658Q377 658 433 609T490 479Q490 416 458 364T365 288L517 93Q548 53 576 31T638 -6Q632 -21 613 -30T568 -40ZM242 306Q316 306 357 343T399 450Q399 516 360 562T247 608Q237 608 227 608T201 606V308Q210 307
221 307T242 306Z" />
<glyph unicode="S" glyph-name="S" horiz-adv-x="530" d="M312 375Q404 338 441 299T478 191Q478 98 412 42T232 -14Q137 -14 83 18T29 113Q29 153 47 176T100 199Q100 118 144 83T264 48Q327 48 359 80T392 156Q392 204 364 233T246 298L218 309Q136 341 103
377T69 478Q69 560 127 612T283 664Q334 664 378 657T458 638L448 527Q445 497 429 487T387 481L389 589Q365 597 335 602T275 608Q223 608 186 584T149 510Q149 468 176 444T287 385L312 375Z" />
<glyph unicode="T" glyph-name="T" horiz-adv-x="577" d="M332 56L442 39Q440 22 428 11T399 0Q368 0 337 1T275 2Q244 2 211 2T145 0Q144 1 144 4T143 11Q143 21 150 28T171 39L241 56V595Q198 595 163 596T93 598L71 538Q54 492 40 482T3 476L25 657Q85 655
160 653T298 651Q403 651 463 653T561 660L576 476Q548 469 534 478T513 513L488 599Q455 595 419 595T332 594V56Z" />
<glyph unicode="U" glyph-name="U" horiz-adv-x="688" d="M602 603V302Q602 129 531 58T334 -14Q220 -14 155 39T90 224V603L23 610Q20 627 33 639T80 652H277Q281 632 270 620T236 606L181 601V265Q181 146 227 100T361 54Q436 54 479 98T523 246V601L434 610Q431
627 444 639T491 652H671Q675 632 664 620T630 606L602 603Z" />
<glyph unicode="V" glyph-name="V" horiz-adv-x="630" d="M154 601L321 106L478 597L391 610Q387 626 398 639T436 652H635Q638 615 618 600T551 588L373 68Q359 25 334 5T271 -22L55 602L-6 610Q-9 627 4 639T51 652H252Q256 632 245 620T211 606L154 601Z" />
<glyph unicode="W" glyph-name="W" horiz-adv-x="938" d="M610 -22L467 501L342 75Q330 33 310 7T241 -22L52 602L-9 610Q-12 627 1 639T48 652H249Q253 632 242 620T208 606L151 601L293 138L438 652H516L660 136L791 595L707 610Q703 626 714 639T752 652H942Q945
615 925 600T858 588L706 75Q693 33 674 8T610 -22Z" />
<glyph unicode="X" glyph-name="X" horiz-adv-x="632" d="M635 39Q633 22 621 11T592 0Q561 0 531 1T470 2Q439 2 414 2T356 0Q355 1 355 4T354 11Q354 21 361 28T382 39L440 54L300 278L152 56L253 39Q251 22 239 11T210 0Q179 0 154 1T98 2Q82 2 58 2T2 0Q1
1 1 4T0 11Q0 21 7 29T28 41L77 54L265 331L94 602L23 610Q20 627 33 639T80 652H288Q292 632 281 620T247 606L205 601L329 404L457 597L381 610Q377 626 388 639T426 652H616Q619 615 598 599T526 589L362 354L551 54L635 39Z" />
<glyph unicode="Y" glyph-name="Y" horiz-adv-x="596" d="M250 56V255L53 603L-6 610Q-9 627 4 639T51 652H240Q244 632 233 620T199 606L157 601L309 328L445 596L363 610Q359 626 370 639T408 652H601Q604 615 585 599T515 588L341 262V56L451 39Q449 22 437
11T408 0Q377 0 346 1T284 2Q253 2 220 2T154 0Q153 1 153 4T152 11Q152 21 159 28T180 39L250 56Z" />
<glyph unicode="Z" glyph-name="Z" horiz-adv-x="586" d="M522 0H44Q41 31 51 57T97 138L397 595L136 588L109 484Q84 483 73 497T64 536L78 656Q107 655 181 654T331 652T467 651T526 650L148 64L464 67L505 170Q512 186 520 194T542 203Q547 203 553 202T564
198L522 0Z" />
<glyph unicode="[" glyph-name="bracketleft" horiz-adv-x="307" d="M169 -240L299 -239Q306 -270 286 -285T244 -300H96V784H293Q300 753 280 738T238 724L169 726V-240Z" />
<glyph unicode="\" glyph-name="backslash" horiz-adv-x="266" d="M188 -272L46 632Q43 649 41 669T38 704Q38 732 49 750T94 759Q95 739 99 716T109 657L243 -178Q249 -213 247 -244T207 -276Q201 -276 196 -275T188 -272Z" />
<glyph unicode="]" glyph-name="bracketright" horiz-adv-x="307" d="M156 724L26 723Q19 754 39 769T81 784H229V-300H32Q25 -269 45 -254T87 -240L156 -242V724Z" />
<glyph unicode="^" glyph-name="asciicircum" horiz-adv-x="438" d="M66 390L159 605Q170 632 185 645T226 658Q233 658 240 657T254 655L374 392Q392 353 377 332T335 311L208 590L91 318Q76 315 61 329T66 390Z" />
<glyph unicode="_" glyph-name="underscore" horiz-adv-x="417" d="M372 58Q377 45 377 29T369 0H46Q41 11 41 28T46 58H372Z" />
<glyph unicode="`" glyph-name="grave" horiz-adv-x="295" d="M242 551L82 650Q61 663 53 676T45 704Q45 719 50 730T66 750Q77 743 100 726T149 690T198 651T233 621Q242 612 246 601T250 578Q250 569 248 563T242 551Z" />
<glyph unicode="a" glyph-name="a" horiz-adv-x="625" d="M621 40Q619 23 607 12T578 0Q550 0 526 1T474 2Q443 2 416 2T345 0Q341 13 347 22T366 36L433 54L385 171H210L168 54L246 36Q244 19 232 10T203 0Q175 0 159 1T115 2Q84 2 70 2T12 0Q8 13 12 23T33 38L95
57L235 427Q250 467 264 489T312 512Q321 512 332 511T351 508L533 53L621 40ZM365 225L292 415L229 225H365Z" />
<glyph unicode="b" glyph-name="b" horiz-adv-x="543" d="M229 506Q348 506 399 474T451 385Q451 347 431 318T364 269Q438 260 467 223T497 146Q497 75 439 38T294 0Q263 0 234 1T162 2Q131 2 106 2T48 0Q47 1 47 4T46 11Q46 21 53 28T74 39L138 56V448L57 457Q56
459 56 461T56 464Q56 486 87 496T229 506ZM365 370Q365 409 332 433T229 459V284H279Q319 284 342 305T365 370ZM403 131Q403 180 356 207T229 230V51Q236 50 252 49T283 47Q336 47 369 63T403 131Z" />
<glyph unicode="c" glyph-name="c" horiz-adv-x="583" d="M320 455Q239 455 194 402T148 247Q148 157 194 103T333 49Q364 49 390 54T436 67L461 154Q466 173 481 180T516 180L498 43Q460 18 407 2T288 -14Q169 -14 110 55T51 232Q51 352 128 432T327 512Q379
512 427 504T501 484L483 380Q479 355 468 344T441 332Q436 332 432 333T423 336L429 435Q404 445 376 450T320 455Z" />
<glyph unicode="d" glyph-name="d" horiz-adv-x="642" d="M254 508Q436 508 508 442T581 259Q581 189 559 140T498 59T407 14T295 -1Q270 -1 234 0T162 2Q131 2 106 2T48 0Q47 1 47 4T46 11Q46 21 53 28T74 39L138 56V448L57 457Q56 459 56 461T56 465Q56 475
62 483T90 496T150 505T254 508ZM489 245Q489 344 422 399T229 454V51Q361 41 425 83T489 245Z" />
<glyph unicode="e" glyph-name="e" horiz-adv-x="542" d="M338 219H230V57L411 51L435 113Q442 132 458 137T491 132L459 0H50Q49 1 49 4T48 11Q48 21 55 28T76 39L140 56V448L59 457Q56 474 69 486T116 499H440L447 422Q449 398 438 387T401 375L388 442L230
446V273H341Q342 295 347 316T378 337Q383 337 388 336T397 333Q395 290 394 259T393 196Q393 169 374 160T335 155L338 219Z" />
<glyph unicode="f" glyph-name="f" horiz-adv-x="511" d="M231 56L329 39Q327 22 315 11T286 0Q255 0 225 1T164 2Q133 2 108 2T50 0Q49 1 49 4T48 11Q48 21 55 28T76 39L140 56V448L59 457Q56 474 69 486T116 499H446L453 422Q455 398 444 387T407 375L394 442L231
446V273H342Q343 295 348 316T379 337Q384 337 389 336T398 333Q396 290 395 259T394 196Q394 169 375 160T336 155L339 219H231V56Z" />
<glyph unicode="g" glyph-name="g" horiz-adv-x="612" d="M499 179V43Q461 18 408 2T288 -14Q169 -14 110 55T51 232Q51 352 128 432T327 512Q379 512 427 504T501 484L483 380Q479 355 468 344T441 332Q436 332 432 333T423 336L429 435Q404 445 376 450T320
455Q239 455 194 402T148 247Q148 157 194 103T333 49Q357 49 376 51T408 58V177L316 186Q313 203 326 215T373 228H567Q571 208 560 196T526 182L499 179Z" />
<glyph unicode="h" glyph-name="h" horiz-adv-x="719" d="M626 0Q595 0 565 1T504 2Q473 2 448 2T390 0Q389 1 389 4T388 11Q388 21 395 28T416 39L480 56V225H231V56L329 39Q327 22 315 11T286 0Q255 0 225 1T164 2Q133 2 108 2T50 0Q49 1 49 4T48 11Q48 21 55
28T76 39L140 56V448L59 457Q56 474 69 486T116 499H317Q321 479 310 467T276 453L231 448V279H480V448L399 457Q396 474 409 486T456 499H657Q661 479 650 467T616 453L571 448V56L669 39Q667 22 655 11T626 0Z" />
<glyph unicode="i" glyph-name="i" horiz-adv-x="379" d="M329 39Q327 22 315 11T286 0Q255 0 225 1T164 2Q133 2 108 2T50 0Q49 1 49 4T48 11Q48 21 55 28T76 39L140 56V448L59 457Q56 474 69 486T116 499H317Q321 479 310 467T276 453L231 448V56L329 39Z" />
<glyph unicode="j" glyph-name="j" horiz-adv-x="355" d="M134 448L45 457Q42 474 55 486T102 499H311Q315 479 304 467T270 453L225 448V76Q225 -53 168 -111T41 -170Q8 -170 -10 -155T-29 -115Q-29 -105 -27 -96T-22 -80Q-10 -87 12 -92T60 -98Q101 -98 117
-72T134 36V448Z" />
<glyph unicode="k" glyph-name="k" horiz-adv-x="614" d="M319 39Q317 22 305 11T276 0Q245 0 220 1T164 2Q133 2 108 2T50 0Q49 1 49 4T48 11Q48 21 55 28T76 39L140 56V448L59 457Q56 474 69 486T116 499H307Q311 479 300 467T266 453L231 448V56L319 39ZM511
440L496 442L326 281L580 7Q570 -1 552 -7T514 -14Q485 -14 463 -4T420 30Q399 54 368 93T309 169T259 234T238 262L427 448L357 461Q353 475 363 487T398 499H584Q586 465 569 450T511 440Z" />
<glyph unicode="l" glyph-name="l" horiz-adv-x="521" d="M460 0H50Q49 1 49 4T48 11Q48 21 55 28T76 39L140 56V448L59 457Q56 474 69 486T116 499H317Q321 479 310 467T276 453L231 448V57L412 51L436 113Q443 132 459 137T492 132L460 0Z" />
<glyph unicode="m" glyph-name="m" horiz-adv-x="817" d="M660 449L697 54L785 39Q783 22 771 11T742 0Q717 0 693 1T646 2Q615 2 590 2T532 0Q531 1 531 4T530 11Q530 21 537 28T558 39L609 52L575 398L425 34Q417 15 408 5T377 -6L211 401L182 56L276 39Q274
22 262 11T233 0Q208 0 184 1T137 2Q106 2 81 2T23 0Q22 1 22 4T21 11Q21 21 28 28T49 39L113 56L154 448L73 457Q70 474 83 486T130 499H264L413 145L551 499H733Q737 479 726 467T692 453L660 449Z" />
<glyph unicode="n" glyph-name="n" horiz-adv-x="697" d="M578 449V-2Q573 -4 564 -6T548 -8Q528 -8 512 2T479 33L206 374V56L304 39Q302 22 290 11T261 0Q230 0 211 1T161 2Q130 2 105 2T47 0Q46 1 46 4T45 11Q45 21 52 28T73 39L137 56V448L56 457Q53 474 66
486T113 499H223L509 134V448L430 457Q427 474 440 486T487 499H651Q655 479 644 467T610 453L578 449Z" />
<glyph unicode="o" glyph-name="o" horiz-adv-x="621" d="M299 -14Q182 -14 117 45T51 227Q51 350 124 431T322 512Q439 512 504 453T570 271Q570 148 497 67T299 -14ZM313 45Q394 45 433 100T472 255Q472 353 425 403T309 454Q228 454 189 398T149 243Q149 145
196 95T313 45Z" />
<glyph unicode="p" glyph-name="p" horiz-adv-x="533" d="M399 341Q399 394 365 427T231 457V231Q249 228 264 227T294 225Q351 225 375 254T399 341ZM225 506Q359 506 423 471T488 358Q488 267 434 222T275 176Q265 176 254 176T231 178V56L329 39Q327 22 315
11T286 0Q255 0 225 1T164 2Q133 2 108 2T50 0Q49 1 49 4T48 11Q48 21 55 28T76 39L140 56V448L59 457Q58 459 58 461T58 465Q58 484 87 495T225 506Z" />
<glyph unicode="q" glyph-name="q" horiz-adv-x="621" d="M680 -155Q617 -155 569 -139T443 -85Q409 -69 374 -51T310 -14Q307 -14 305 -14T299 -14Q182 -14 117 45T51 227Q51 350 124 431T322 512Q439 512 504 453T570 271Q570 178 528 108T410 7L540 -47Q609
-75 652 -83T736 -91Q749 -91 760 -89T779 -84Q783 -88 784 -92T786 -102Q786 -121 761 -138T680 -155ZM313 45Q394 45 433 100T472 255Q472 353 425 403T309 454Q228 454 189 398T149 243Q149 145 196 95T313 45Z" />
<glyph unicode="r" glyph-name="r" horiz-adv-x="597" d="M231 56L319 39Q317 22 305 11T276 0Q245 0 220 1T164 2Q133 2 108 2T50 0Q49 1 49 4T48 11Q48 21 55 28T76 39L140 56V448L59 457Q58 459 58 461T58 464Q58 474 63 481T86 494T136 503T225 506Q372 506
430 467T488 363Q488 312 458 273T380 220Q396 199 421 170T476 113T536 59T593 21Q586 8 566 -4T522 -16Q493 -16 464 -2T402 53Q383 78 359 122T319 198H231V56ZM394 352Q394 398 359 428T231 458V243Q314 236 354 265T394 352Z" />
<glyph unicode="s" glyph-name="s" horiz-adv-x="469" d="M412 145Q412 78 360 32T213 -14Q132 -14 89 12T45 84Q45 115 65 133T119 148Q120 97 149 69T232 41Q269 41 293 60T318 117Q318 148 297 172T211 219Q133 246 104 278T74 363Q74 423 119 467T249 512Q294
512 326 506T395 484L384 393Q380 368 366 358T324 355L325 445Q307 452 286 456T242 460Q206 460 184 442T161 392Q161 364 179 345T275 298Q358 269 385 232T412 145Z" />
<glyph unicode="t" glyph-name="t" horiz-adv-x="547" d="M413 39Q411 22 399 11T370 0Q339 0 309 1T248 2Q217 2 192 2T134 0Q133 1 133 4T132 11Q132 21 139 28T160 39L224 56V445H104L81 374Q72 347 58 340T25 339L43 499H499L512 388Q514 368 502 352T463
340L440 445H315V56L413 39Z" />
<glyph unicode="u" glyph-name="u" horiz-adv-x="658" d="M546 448V222Q546 112 487 49T317 -14Q199 -14 150 42T100 184V448L29 457Q26 474 39 486T86 499H285Q289 479 278 467T244 453L191 448V213Q191 138 227 96T342 54Q413 54 444 96T476 212V448L389 457Q386
474 399 486T446 499H621Q625 479 614 468T580 453L546 448Z" />
<glyph unicode="v" glyph-name="v" horiz-adv-x="631" d="M532 440L371 59Q355 22 339 5T295 -16L91 449L29 457Q26 474 39 486T86 499H280Q284 479 273 467T239 453L192 448L334 113L453 447L378 461Q374 475 384 487T419 499H605Q607 465 590 450T532 440Z" />
<glyph unicode="w" glyph-name="w" horiz-adv-x="864" d="M776 440L765 441L645 60Q632 17 612 3T557 -16L434 361L344 64Q331 21 310 6T247 -16L91 449L29 457Q26 474 39 486T86 499H280Q284 479 273 467T239 453L192 448L300 108L404 494H488L602 115L697 447L622
461Q618 475 628 487T663 499H849Q851 465 834 451T776 440Z" />
<glyph unicode="x" glyph-name="x" horiz-adv-x="656" d="M576 0Q551 0 527 1T480 2Q449 2 422 2T363 0Q362 1 362 4T361 11Q361 21 368 28T389 39L435 48L305 214L201 54L285 39Q283 22 271 11T242 0Q217 0 196 1T152 2Q121 2 96 2T38 0Q37 1 37 4T36 11Q36 21
43 28T64 39L119 56L267 256L113 449L51 457Q48 474 61 486T108 499H290Q294 479 283 467T249 453L231 451L338 315L428 451L363 461Q359 475 369 487T404 499H582Q584 465 567 450T509 440H505L373 274L550 51L619 39Q617 22 605 11T576 0Z" />
<glyph unicode="y" glyph-name="y" horiz-adv-x="599" d="M194 450L308 258L419 447L344 461Q340 475 350 487T385 499H563Q565 465 548 450T490 440L334 208V56L432 39Q430 22 418 11T389 0Q358 0 328 1T267 2Q236 2 211 2T153 0Q152 1 152 4T151 11Q151 21 158
28T179 39L243 56V197L92 449L30 457Q27 474 40 486T87 499H269Q273 479 262 467T228 453L194 450Z" />
<glyph unicode="z" glyph-name="z" horiz-adv-x="544" d="M406 65L435 141Q441 157 450 165T472 174Q477 174 483 173T494 169L458 0H69Q65 21 71 40T100 93L332 446L154 443L130 353Q105 352 94 366T85 405L96 503L458 497L172 57L406 65Z" />
<glyph unicode="{" glyph-name="braceleft" horiz-adv-x="384" d="M350 -244Q354 -265 331 -280T273 -295Q198 -295 170 -261T141 -172Q141 -139 145 -100T157 -2Q161 34 164 68T167 132Q167 176 139 194T51 216Q47 227 47 241T51 266Q119 273 142 290T165 335Q165
360 162 418T149 565Q146 596 145 612T144 645Q144 707 179 746T291 786Q343 786 356 760T355 718Q342 720 319 723T283 726Q243 726 230 712T217 671Q217 661 218 633T227 538Q231 498 235 444T239 364Q239 313 220 287T162 248Q204 235 222 210T240 141Q240 105
237 71T230 -3Q226 -42 221 -78T216 -143Q216 -189 235 -217T322 -245Q329 -245 336 -245T350 -244Z" />
<glyph unicode="|" glyph-name="bar" horiz-adv-x="259" d="M166 755V-224Q153 -231 131 -231T93 -227V757Q109 763 130 763T166 755Z" />
<glyph unicode="}" glyph-name="braceright" horiz-adv-x="384" d="M31 732Q27 753 50 768T108 783Q183 783 211 749T240 660Q240 627 236 588T224 490Q220 454 217 420T214 356Q214 312 242 294T330 272Q334 261 334 247T330 222Q262 215 239 198T216 153Q216
128 219 70T232 -77Q235 -108 236 -124T237 -157Q237 -219 202 -258T90 -298Q38 -298 25 -272T26 -230Q39 -232 62 -235T98 -238Q138 -238 151 -224T164 -183Q164 -173 163 -145T154 -50Q150 -10 146 44T142 124Q142 175 161 201T219 240Q177 253 159 278T141 347Q141
383 144 417T151 491Q155 530 160 566T165 631Q165 677 146 705T59 733Q52 733 45 733T31 732Z" />
<glyph unicode="~" glyph-name="asciitilde" horiz-adv-x="561" d="M72 177Q63 180 59 188T55 204Q55 235 94 268T185 301Q216 301 241 293T289 275T335 257T388 248Q419 248 441 260T489 302Q498 299 502 293T506 279Q506 250 465 214T365 177Q337 177 313 186T267
205T223 224T175 233Q141 233 118 220T72 177Z" />
</font>
</defs>
</svg>
